<?xml version="1.0" encoding="UTF-8" standalone="no"?>
<svg
   xmlns:dc="http://purl.org/dc/elements/1.1/"
   xmlns:cc="http://creativecommons.org/ns#"
   xmlns:rdf="http://www.w3.org/1999/02/22-rdf-syntax-ns#"
   xmlns:svg="http://www.w3.org/2000/svg"
   xmlns="http://www.w3.org/2000/svg"
   viewBox="0 0 1122.52 793.70667"
   height="793.70667"
   width="1122.52"
   xml:space="preserve"
   id="svg2"
   version="1.1"><metadata
     id="metadata8"><rdf:RDF><cc:Work
         rdf:about=""><dc:format>image/svg+xml</dc:format><dc:type
           rdf:resource="http://purl.org/dc/dcmitype/StillImage" /></cc:Work></rdf:RDF></metadata><defs
     id="defs6" /><g
     transform="matrix(1.3333333,0,0,-1.3333333,0,793.70667)"
     id="g10"><g
       transform="scale(0.1)"
       id="g12"><path
         id="path14"
         style="fill:#fcaf16;fill-opacity:1;fill-rule:nonzero;stroke:none"
         d="m 4040.81,3113.84 c 47.34,0 86.12,16.79 116.36,50.37 30.24,33.55 45.34,80.49 45.34,140.72 0,60.26 -15.05,107.17 -45.19,140.75 -30.13,33.54 -68.54,50.33 -115.23,50.33 -47.55,0 -86.56,-16.79 -117.01,-50.33 -30.45,-33.58 -45.67,-80.49 -45.67,-140.75 0,-60.03 15.17,-106.91 45.52,-140.55 30.33,-33.68 68.96,-50.54 115.88,-50.54 m 0.63,435.78 c 66.28,0 120.52,-22.39 162.69,-67.16 42.17,-44.74 63.26,-103.94 63.26,-177.53 0,-73.59 -21.09,-132.76 -63.26,-177.53 -42.17,-44.74 -96.41,-67.13 -162.69,-67.13 -66.49,0 -120.93,22.42 -163.32,67.3 -42.39,44.87 -63.59,103.97 -63.59,177.36 0,73.59 21.2,132.79 63.59,177.53 42.39,44.77 96.83,67.16 163.32,67.16" /><path
         id="path16"
         style="fill:#fcaf16;fill-opacity:1;fill-rule:nonzero;stroke:none"
         d="m 4697.67,3197.13 c -17.22,46.46 -42.29,74.98 -75.21,85.54 v 1.27 c 32.92,6.69 58.85,20.98 77.79,42.94 18.94,21.95 28.4,49.27 28.4,81.98 0,28.62 -7.31,54.34 -21.94,77.16 -14.64,22.82 -33.58,37.77 -56.81,44.87 -23.24,7.09 -53.15,10.63 -89.73,10.63 h -209.49 v -51.97 h 212.07 c 67.56,0 101.36,-26.89 101.36,-80.69 0,-30.11 -8.78,-51.3 -26.32,-63.59 -17.54,-12.26 -45.77,-18.39 -84.73,-18.39 h -202.38 v -258.55 h 62.63 v 202.38 h 115.86 c 24.1,0 45.41,-7.1 63.91,-21.29 18.51,-14.22 31.75,-32.51 39.71,-54.87 l 44.54,-126.22 h 67.8" /><path
         id="path18"
         style="fill:#fcaf16;fill-opacity:1;fill-rule:nonzero;stroke:none"
         d="m 4890.71,3124.5 h 86.18 c 68.64,0 115.45,15.99 140.44,47.94 24.91,31.95 37.44,76.99 37.44,135.09 0,56.59 -12.46,100.37 -37.31,131.35 -24.85,30.98 -71.71,46.51 -140.57,46.51 h -86.18 z m -62.63,417.02 h 150.09 c 160.74,0 241.1,-77.99 241.1,-233.99 0,-159.48 -80.36,-239.2 -241.1,-239.2 h -150.09" /><path
         id="path20"
         style="fill:#fcaf16;fill-opacity:1;fill-rule:nonzero;stroke:none"
         d="m 5658.27,3068.33 h -352.79 v 473.19 h 341.83 v -56.14 h -279.2 v -144.61 h 261.11 v -56.17 h -261.11 v -160.1 h 290.16" /><path
         id="path22"
         style="fill:#fcaf16;fill-opacity:1;fill-rule:nonzero;stroke:none"
         d="m 5791.13,3197.13 c 17.52,46.46 43.03,74.98 76.57,85.54 v 1.27 c -33.54,6.69 -59.93,20.98 -79.23,42.94 -19.26,21.95 -28.88,49.27 -28.88,81.98 0,28.62 7.45,54.34 22.34,77.16 14.89,22.82 34.16,37.77 57.82,44.87 23.68,7.09 54.13,10.63 91.38,10.63 h 213.25 v -51.97 h -215.91 c -68.77,0 -103.16,-26.89 -103.16,-80.69 0,-30.11 8.91,-51.3 26.75,-63.59 17.89,-12.26 46.64,-18.39 86.28,-18.39 h 206.04 v -258.55 h -63.77 v 202.38 h -117.95 c -24.55,0 -46.23,-7.1 -65.07,-21.29 -18.84,-14.22 -32.3,-32.51 -40.41,-54.87 l -45.37,-126.22 h -68.97" /><path
         id="path24"
         style="fill:#333132;fill-opacity:1;fill-rule:nonzero;stroke:none"
         d="m 4157.85,2640.27 c 20.31,9.15 37.53,21.83 51.49,38.01 22.46,26.03 33.82,58.63 33.82,96.85 0,33.06 -8.63,63.28 -25.64,89.82 -17.46,27.27 -40.65,45.46 -68.85,54.09 -25.71,7.83 -58.84,11.82 -98.52,11.82 h -235.62 v -89.54 h 238.33 c 77.69,0 87.66,-35.38 87.66,-66.19 0,-25.4 -6.48,-42.27 -19.75,-51.59 -15.14,-10.57 -41.37,-15.94 -78,-15.94 h -228.24 v -304.41 h 100.62 v 210.5 h 102.78 c 21.24,0 39.47,-6.03 55.68,-18.47 16.64,-12.78 28.17,-28.79 35.35,-48.89 l 50.55,-143.14 h 108.46 l -58.14,157.87 c -13,35.06 -30.39,61.54 -51.98,79.21" /><path
         id="path26"
         style="fill:#333132;fill-opacity:1;fill-rule:nonzero;stroke:none"
         d="m 4485.41,2930.86 -202.64,-527.67 h 107.11 l 142.72,396.31 150.15,-396.31 h 112.2 l -215.25,527.67" /><path
         id="path28"
         style="fill:#333132;fill-opacity:1;fill-rule:nonzero;stroke:none"
         d="m 4996.86,2542.42 -143.07,388.44 h -107.8 l 205.17,-527.67 h 91.4 l 205.17,527.67 h -107.8" /><path
         id="path30"
         style="fill:#333132;fill-opacity:1;fill-rule:nonzero;stroke:none"
         d="m 5364.44,2628.14 h 271.6 v 93.9 h -271.6 v 114.94 h 290.41 v 93.88 h -391.04 v -527.68 h 402.44 v 93.91 h -301.81" /><path
         id="path32"
         style="fill:#333132;fill-opacity:1;fill-rule:nonzero;stroke:none"
         d="m 6046.79,2930.86 v -347.38 l -230.57,347.38 h -93.77 v -527.67 h 97.27 v 347.38 l 230.57,-347.38 h 94.09 v 527.67" /><path
         id="path34"
         style="fill:#ffcb04;fill-opacity:1;fill-rule:nonzero;stroke:none"
         d="m 3405.6,3650.29 h -914.38 c -119.68,0 -216.7,-97.02 -216.7,-216.69 v -914.39 c 0,-119.68 97.02,-216.69 216.7,-216.69 h 914.38 c 119.68,0 216.69,97.01 216.69,216.69 v 914.39 c 0,119.67 -97.01,216.69 -216.69,216.69" /><path
         id="path36"
         style="fill:#fcaf16;fill-opacity:1;fill-rule:nonzero;stroke:none"
         d="m 2889.28,3335.34 c 0,0 -0.07,-0.14 -0.08,-0.18 60.54,-41.55 122.56,-102.12 182.46,-189.82 32.37,-12.21 69.57,-24.07 94.19,-25.04 3.46,-0.14 6.68,-0.07 9.6,0.25 0,0 -11.37,-2.56 -30.02,-4.26 -1.81,-0.18 -3.6,-0.34 -5.54,-0.49 32.1,-12.03 68.71,-23.59 92.98,-24.51 3.41,-0.11 6.58,-0.05 9.45,0.27 0,0 -22.94,-5 -57.24,-5.51 -2.81,-0.03 -5.56,-0.1 -8.52,-0.09 16.45,-4.51 31.74,-7.53 43.85,-7.81 2.81,-0.06 5.62,-0.13 8.04,0.14 0,0 -12.04,-2.73 -31.71,-4.43 -1.38,-0.12 -2.69,-0.25 -4.14,-0.34 3.11,-1.97 6.48,-4.18 9.66,-6.2 12.95,-6.14 38.6,-16.27 60.75,-12.03 -0.71,-0.75 -1.74,-1.36 -2.63,-2.02 -19.24,-14.29 -80.22,-8.75 -107.73,-5.36 -8.34,1.04 -13.75,1.86 -13.75,1.86 0,0 56.53,-18.97 118.34,-18.66 127.64,-86.64 282.25,-212.22 330.02,-337.27 2.06,-5.19 3.71,-10.34 5.36,-15.53 1.07,-3.45 2.22,-6.9 3.11,-10.34 2.02,-7.56 3.44,-15.09 4.53,-22.61 0.26,-1.84 0.61,-3.68 0.81,-5.52 0.85,-7.46 1.06,-14.89 0.91,-22.3 -0.03,-1.72 0.28,-3.45 0.2,-5.15 -0.14,-3.3 0.13,-6.62 -0.1,-9.89 -0.03,-0.36 0.01,-0.71 -0.04,-1.07 0,0 -0.44,0.84 -1.29,2.23 0,0 -63.69,52.64 -141.88,104.41 -1.54,0.61 -3.06,1.23 -4.66,1.83 -7.05,4.74 -14.08,9.03 -21.12,13.48 l -49.99,29.71 c -0.19,0.09 -0.37,0.2 -0.56,0.29 -4.85,2.66 -9.68,5.21 -14.49,7.73 -2.63,1.38 -5.23,2.71 -7.85,4.05 -135.6,69.48 -254.68,89.74 -283.85,93.88 -4.21,0.59 -6.66,0.89 -6.9,0.91 -6.54,0.59 -12.48,-4.11 -13.15,-10.71 -0.18,-1.83 0.12,-3.56 0.69,-5.18 1.5,-4.24 5.25,-7.5 10.02,-8.01 2.49,-0.23 244.81,-27.62 452.52,-206.01 l -498.47,129 c 0,0 -97.1,-0.31 -166.76,-43.59 -2.08,-1.29 -4.12,-2.63 -6.14,-4 -1.42,-0.96 -2.82,-1.93 -4.2,-2.91 -43.14,-30.95 -72.03,-80.91 -52.83,-161.5 0.22,-0.95 0.34,-1.83 0.57,-2.79 0,0 -19.67,24.11 -25.2,49.46 -0.02,0.08 -0.05,0.17 -0.07,0.25 -3.93,-2.98 -6.72,-5.89 -8.01,-8.74 -4.27,-22.48 -6.73,-52.38 4.36,-71.82 0.69,-1.22 1.26,-2.54 2.07,-3.68 0,0 -13.82,13.32 -27.74,33.49 -0.12,0.17 -0.24,0.33 -0.36,0.5 -37.49,-51.99 -39.57,-163.28 -34.43,-241.19 h 703.29 c 119.67,0 216.69,97.02 216.69,216.69 v 483.27" /><path
         id="path38"
         style="fill:#333132;fill-opacity:1;fill-rule:nonzero;stroke:none"
         d="m 2840.94,3149.82 c 4.72,25.31 29.06,42.01 54.36,37.29 4.41,-0.82 8.43,-2.42 12.25,-4.33 l 0.07,0.05 c 0,0 0.93,-0.5 2.22,-1.26 4.19,-2.4 7.92,-5.35 11.12,-8.84 9.22,-9.02 20.06,-24.67 21.61,-50.21 0.39,-6.54 -3.43,-12.65 -9.19,-15.76 -11.65,-6.3 -32.58,-15.08 -53.51,-11.45 -0.55,0.09 -1.09,0.04 -1.66,0.14 -6.57,1.23 -12.52,3.83 -17.71,7.38 -0.11,0.07 -0.22,0.1 -0.33,0.17 -0.32,0.21 -0.46,0.5 -0.76,0.72 -14.05,10.25 -21.87,27.87 -18.47,46.1 m -104.19,-606.1 c 0.12,-0.18 0.23,-0.33 0.36,-0.51 13.92,-20.17 27.74,-33.48 27.74,-33.48 -0.81,1.13 -1.39,2.45 -2.07,3.67 -11.09,19.43 -8.64,49.35 -4.36,71.83 1.29,2.84 4.08,5.76 8.01,8.73 0.02,-0.08 0.05,-0.16 0.07,-0.25 5.54,-25.34 25.21,-49.45 25.21,-49.45 -0.25,0.95 -0.36,1.83 -0.58,2.77 -19.2,80.6 9.69,130.55 52.83,161.5 1.39,0.99 2.77,1.97 4.2,2.92 2.02,1.37 4.05,2.71 6.14,4.01 69.66,43.28 166.75,43.58 166.75,43.58 l 498.49,-129 c -207.72,178.39 -450.04,205.79 -452.53,206.01 -4.78,0.51 -8.53,3.78 -10.01,8.02 -0.58,1.62 -0.88,3.35 -0.7,5.17 0.66,6.59 6.61,11.31 13.15,10.71 0.24,-0.03 2.69,-0.31 6.9,-0.91 29.17,-4.14 148.25,-24.4 283.86,-93.88 2.61,-1.34 5.21,-2.67 7.84,-4.04 4.81,-2.53 9.64,-5.09 14.49,-7.74 0.19,-0.1 0.37,-0.2 0.56,-0.3 l 49.99,-29.7 25.78,-15.31 v 0 c 78.18,-51.77 141.88,-104.41 141.88,-104.41 0.85,-1.4 1.3,-2.22 1.3,-2.22 0.04,0.35 0,0.7 0.03,1.05 0.22,3.29 -0.04,6.61 0.1,9.9 0.08,1.7 -0.23,3.44 -0.2,5.15 0.15,7.41 -0.06,14.83 -0.91,22.3 -0.2,1.83 -0.55,3.67 -0.81,5.51 -1.09,7.53 -2.51,15.06 -4.53,22.62 -0.89,3.45 -2.04,6.89 -3.11,10.34 -1.66,5.18 -3.3,10.35 -5.36,15.53 -47.78,125.05 -202.38,250.63 -330.03,337.28 -61.8,-0.32 -118.32,18.66 -118.32,18.66 0,0 5.39,-0.84 13.73,-1.87 27.52,-3.4 88.5,-8.93 107.74,5.36 0.89,0.67 1.92,1.27 2.63,2.03 -22.15,-4.24 -47.8,5.88 -60.75,12.02 -3.19,2.03 -6.55,4.23 -9.66,6.19 1.45,0.11 2.76,0.24 4.13,0.36 19.68,1.7 31.72,4.42 31.72,4.42 -2.42,-0.26 -5.24,-0.2 -8.04,-0.14 -12.11,0.28 -27.39,3.3 -43.86,7.82 2.98,-0.03 5.72,0.04 8.53,0.08 34.3,0.51 57.24,5.51 57.24,5.51 -2.87,-0.32 -6.04,-0.39 -9.44,-0.26 -24.28,0.91 -60.88,12.46 -92.99,24.5 1.94,0.15 3.73,0.32 5.54,0.48 18.64,1.71 30.02,4.28 30.02,4.28 -2.92,-0.33 -6.15,-0.4 -9.6,-0.26 -24.62,0.97 -61.82,12.82 -94.19,25.03 -59.9,87.7 -121.93,148.29 -182.46,189.83 -93.06,63.86 -182.56,82.32 -255.2,81.86 l -0.02,0.02 c 0,0 -0.73,-0.02 -1.73,-0.04 -2.52,-0.02 -5.08,-0.01 -7.55,-0.08 -36.72,-0.22 -175.06,1.79 -234.7,43.54 0,0 34.53,-46.04 69.07,-48.34 0,0 -94.13,-3.05 -138.12,24.17 0,0 21.85,-37.68 60.35,-65.72 -22.98,-7.25 -47.27,-16.45 -71.48,-27.21 -12.09,-5.37 -23.84,-10.92 -35.29,-16.46 v 0 -808.17 c 0,-49.05 16.52,-94.14 44.05,-130.41 5.97,-7.88 12.29,-15.49 19.28,-22.48 6.98,-6.98 14.59,-13.3 22.46,-19.28 36.29,-27.52 81.38,-44.05 130.41,-44.05 h 49.69 161.9 c -5.14,77.91 -3.06,189.21 34.43,241.21" /></g></g></svg>